<?xml version="1.0" encoding="UTF-8"?>
<svg id="_圖層_1" data-name="圖層 1" xmlns="http://www.w3.org/2000/svg" viewBox="0 0 355 355">
  <defs>
    <style>
      .cls-1 {
        fill: #1a2a51;
        opacity: .2;
        stroke-width: 0px;
      }
    </style>
  </defs>
  <path class="cls-1" d="M274.55,93.91H80.45c-13.34,0-24.14,10.92-24.14,24.26l-.12,145.58c0,13.34,10.92,24.26,24.26,24.26h194.11c13.34,0,24.26-10.92,24.26-24.26V118.17c0-13.34-10.92-24.26-24.26-24.26ZM269.7,145.47l-85.77,53.62c-3.88,2.43-8.98,2.43-12.86,0l-85.77-53.62c-4.97-2.79-6.73-9.07-3.94-14.04,2.79-4.97,9.07-6.73,14.04-3.94.28.16.56.33.82.51l81.28,50.83,81.28-50.83c4.68-3.24,11.11-2.08,14.35,2.61,3.24,4.68,2.08,11.11-2.61,14.35-.27.18-.54.36-.82.51Z"/>
</svg>