<?xml version="1.0" encoding="utf-8"?>
<!-- Generator: Adobe Illustrator 28.1.0, SVG Export Plug-In . SVG Version: 6.00 Build 0)  -->
<svg version="1.1" id="圖層_1" xmlns="http://www.w3.org/2000/svg" xmlns:xlink="http://www.w3.org/1999/xlink" x="0px" y="0px"
	 viewBox="0 0 12 12" style="enable-background:new 0 0 12 12;" xml:space="preserve">
<style type="text/css">
	.st0{fill:#3CB056;}
	.st1{fill:#FFFFFF;}
</style>
<g>
	<path class="st0" d="M8.8,11.1H3.2c-1.3,0-2.3-1-2.3-2.3V3.2c0-1.3,1-2.3,2.3-2.3h5.6c1.3,0,2.3,1,2.3,2.3v5.6
		C11.1,10.1,10.1,11.1,8.8,11.1z"/>
	<g>
		<g>
			<g>
				<path class="st1" d="M9.4,5.5C9.4,4,7.9,2.8,6,2.8C4.1,2.8,2.6,4,2.6,5.5c0,1.4,1.2,2.5,2.8,2.7c0.1,0,0.3,0.1,0.3,0.2
					c0,0.1,0,0.2,0,0.3c0,0,0,0.2,0,0.3c0,0.1-0.1,0.3,0.3,0.2C6.4,9,8,8,8.7,7.2h0C9.2,6.7,9.4,6.1,9.4,5.5z"/>
			</g>
			<g>
				<path class="st0" d="M8.3,6.4h-1h0c0,0-0.1,0-0.1-0.1v0v0V4.9v0v0c0,0,0-0.1,0.1-0.1h0h1c0,0,0.1,0,0.1,0.1v0.2
					c0,0,0,0.1-0.1,0.1H7.6v0.2h0.6c0,0,0.1,0,0.1,0.1v0.2c0,0,0,0.1-0.1,0.1H7.6V6h0.6c0,0,0.1,0,0.1,0.1L8.3,6.4
					C8.3,6.4,8.3,6.4,8.3,6.4z"/>
				<path class="st0" d="M4.7,6.4C4.8,6.4,4.8,6.4,4.7,6.4l0.1-0.3c0,0,0-0.1-0.1-0.1H4.1V4.9c0,0,0-0.1-0.1-0.1H3.8
					c0,0-0.1,0-0.1,0.1v1.5v0v0c0,0,0,0.1,0.1,0.1h0H4.7z"/>
				<path class="st0" d="M5.3,4.8H5.1c0,0-0.1,0-0.1,0.1v1.5c0,0,0,0.1,0.1,0.1h0.2c0,0,0.1,0,0.1-0.1L5.3,4.8
					C5.4,4.8,5.3,4.8,5.3,4.8z"/>
				<path class="st0" d="M6.9,4.8H6.7c0,0-0.1,0-0.1,0.1v0.9L6,4.8c0,0,0,0,0,0c0,0,0,0,0,0c0,0,0,0,0,0c0,0,0,0,0,0c0,0,0,0,0,0
					c0,0,0,0,0,0c0,0,0,0,0,0c0,0,0,0,0,0c0,0,0,0,0,0c0,0,0,0,0,0c0,0,0,0,0,0c0,0,0,0,0,0c0,0,0,0,0,0c0,0,0,0,0,0c0,0,0,0,0,0
					c0,0,0,0,0,0c0,0,0,0,0,0c0,0,0,0,0,0c0,0,0,0,0,0H5.7c0,0-0.1,0-0.1,0.1v1.5c0,0,0,0.1,0.1,0.1h0.2c0,0,0.1,0,0.1-0.1V5.5
					l0.7,0.9c0,0,0,0,0,0c0,0,0,0,0,0c0,0,0,0,0,0c0,0,0,0,0,0c0,0,0,0,0,0c0,0,0,0,0,0c0,0,0,0,0,0c0,0,0,0,0,0c0,0,0,0,0,0
					c0,0,0,0,0,0h0.2c0,0,0.1,0,0.1-0.1L6.9,4.8C7,4.8,7,4.8,6.9,4.8z"/>
			</g>
		</g>
	</g>
</g>
</svg>
