<?xml version="1.0" encoding="UTF-8"?><svg id="_色碼" xmlns="http://www.w3.org/2000/svg" viewBox="0 0 265.39 251.03"><defs><style>.cls-1{fill:#00c100;}.cls-2{fill:#fefefe;}.cls-3{fill:#01c101;}</style></defs><path class="cls-2" d="M133.27,0c35.35.62,68.25,10.07,96.1,33.48,23.43,19.69,36.77,44.62,35.99,75.84-.41,16.22-5.99,30.9-14.81,44.59-21.84,33.91-52.61,57.76-86.66,78.03-10.79,6.42-21.93,12.21-33.2,17.76-3.1,1.53-6.03,2.09-8.91-.14-2.7-2.09-3.07-4.93-2.65-8.19.95-7.26,1.62-14.55,2.45-21.82.62-5.37-1.52-8.59-6.9-9.29-12.77-1.67-25.27-4.34-37.37-8.84-22.44-8.36-42.07-20.83-56.94-39.86C-9.27,123.62-6.31,75.59,27.58,41.24,49.23,19.3,75.91,7.41,105.92,2.25c8.88-1.53,17.84-2.01,27.35-2.25Z"/><path class="cls-1" d="M154.87,113.74c0-7.49,0-13.91,0-20.32,0-3.45-.1-6.91.04-10.36.18-4.46,2.94-7.21,6.93-7.15,3.82.05,6.46,2.65,6.61,7,.18,5.24.06,10.5.06,15.75,0,11.05-.01,22.11,0,33.16,0,3.72-.91,6.88-4.85,8.23-3.86,1.32-6.31-.71-8.34-3.64-.16-.23-.34-.44-.51-.65-7.61-9.82-15.22-19.65-22.86-29.46-.71-.91-1.17-2.14-2.86-2.64,0,8.7,0,17.2,0,25.71,0,1.38.05,2.77-.02,4.14-.2,4.08-2.98,6.98-6.68,7.02-3.71.04-6.65-2.8-6.73-6.91-.13-7.18-.05-14.37-.06-21.55,0-9.53.04-19.07-.02-28.6-.02-3.4,1.2-6.05,4.41-7.24,3.42-1.27,6.13.12,8.28,2.96,7.53,9.89,15.1,19.74,22.66,29.6,1.05,1.38,2.15,2.72,3.92,4.96Z"/><path class="cls-1" d="M178.74,107.96c0-8.15-.04-16.31.01-24.46.04-5.24,2.36-7.69,7.52-7.75,8.7-.1,17.41-.1,26.12,0,4.59.05,7.3,2.67,7.31,6.69,0,4.01-2.76,6.73-7.24,6.82-5.8.11-11.61.11-17.41-.01-2.14-.04-2.78.6-2.85,2.79-.28,9.21-.36,9.2,8.89,9.2,3.45,0,6.91-.08,10.36.02,5.03.15,8.11,2.94,7.97,7.05-.13,3.95-3.17,6.56-7.97,6.63-5.39.07-10.78.08-16.17-.07-2.3-.07-3.06.57-3.1,2.99-.15,8.97-.25,8.97,8.68,8.97,3.87,0,7.74-.1,11.61.05,4.51.17,7.3,2.88,7.32,6.81.01,3.95-2.76,6.76-7.27,6.83-8.84.14-17.69.15-26.53,0-4.82-.09-7.2-2.75-7.24-7.68-.06-8.29-.02-16.58-.02-24.87Z"/><path class="cls-1" d="M44.57,107.99c0-8-.03-16,.01-24.01.03-5.11,2.55-8.19,6.66-8.32,4.28-.13,6.99,2.99,7.01,8.36.05,12.69.22,25.39-.1,38.07-.11,4.18,1.19,5.1,5.04,4.81,4.66-.35,9.38-.15,14.07-.06,5.13.09,8.04,2.67,8,6.93-.04,4.24-2.94,6.78-8.11,6.83-8.14.08-16.28.09-24.42,0-5.55-.07-8.09-2.66-8.14-8.19-.07-8.14-.02-16.28-.02-24.42Z"/><path class="cls-3" d="M91.78,107.8c0-8.43-.03-16.86.01-25.29.03-5,1.83-6.76,6.72-6.79,5.04-.03,6.95,1.6,6.97,6.56.07,17.27.08,34.55,0,51.82-.02,4.71-2.27,6.58-7.14,6.48-4.53-.09-6.5-2.02-6.53-6.66-.05-8.71-.02-17.41-.02-26.12Z"/></svg>