<?xml version="1.0" encoding="UTF-8"?>
<svg id="_圖層_1" data-name="圖層 1" xmlns="http://www.w3.org/2000/svg" viewBox="0 0 355 355">
  <defs>
    <style>
      .cls-1 {
        opacity: .2;
      }

      .cls-2 {
        fill: #1a2a51;
        stroke-width: 0px;
      }
    </style>
  </defs>
  <g class="cls-1">
    <path class="cls-2" d="M177.5,41.7c26.91,0,48.73,21.82,48.73,48.73v24.37h30.46c10.09,0,18.28,8.18,18.28,18.28v134.02c0,10.09-8.18,18.28-18.28,18.28H98.31c-10.09,0-18.28-8.18-18.28-18.28v-134.02c0-10.09,8.18-18.28,18.28-18.28h30.46v-24.37c0-26.91,21.82-48.73,48.73-48.73ZM177.5,181.81c-10.09,0-18.28,8.18-18.28,18.28s8.18,18.28,18.28,18.28,18.28-8.18,18.28-18.28-8.18-18.28-18.28-18.28ZM177.5,66.07c-13.46,0-24.37,10.91-24.37,24.37v24.37h48.73v-24.37c0-13.46-10.91-24.37-24.37-24.37Z"/>
  </g>
</svg>