<?xml version="1.0" encoding="utf-8"?>
<!-- Generator: Adobe Illustrator 28.1.0, SVG Export Plug-In . SVG Version: 6.00 Build 0)  -->
<svg version="1.1" id="圖層_1" xmlns="http://www.w3.org/2000/svg" xmlns:xlink="http://www.w3.org/1999/xlink" x="0px" y="0px"
	 viewBox="0 0 24 24" style="enable-background:new 0 0 24 24;" xml:space="preserve">
<style type="text/css">
	.st0{fill:#444344;}
	.st1{fill:none;stroke:#444344;stroke-width:0.5251;stroke-miterlimit:10;}
</style>
<path class="st0" d="M11.8,11C9.7,10.4,9,9.9,9,9c0-1,0.9-1.7,2.5-1.7c1.7,0,2.3,0.8,2.3,2h2.1c-0.1-1.6-1-3.1-3-3.6v-2h-2.8v2
	C8.3,6,6.8,7.2,6.8,9c0,2.2,1.8,3.2,4.4,3.9c2.3,0.6,2.8,1.4,2.8,2.3c0,0.6-0.5,1.7-2.5,1.7c-1.9,0-2.7-0.9-2.8-2H6.7
	c0.1,2,1.6,3.2,3.4,3.6v2h2.8v-2c1.8-0.3,3.3-1.4,3.3-3.3C16.2,12.4,13.9,11.5,11.8,11z"/>
<circle class="st1" cx="11.4" cy="12" r="10.8"/>
</svg>
