<?xml version="1.0" encoding="utf-8"?>
<!-- Generator: Adobe Illustrator 24.2.3, SVG Export Plug-In . SVG Version: 6.00 Build 0)  -->
<svg version="1.1" id="圖層_1" xmlns="http://www.w3.org/2000/svg" xmlns:xlink="http://www.w3.org/1999/xlink" x="0px" y="0px"
	 viewBox="0 0 150 150" style="enable-background:new 0 0 150 150;" xml:space="preserve">
<style type="text/css">
	.st0{fill:#333333;}
</style>
<g>
	<path class="st0" d="M90.7,95.4c-4.4,8.7-13.5,17.2-26.2,17.2c-16.7,0-22.7-14.7-22.7-26.2c0-14.9,3.4-51.8,43.8-51.8
		c7.6,0,13.3,1.4,17.4,3c4.8,2,6.2,5.7,5.3,10.8l-6,34.2c-2.3,13.8-0.5,18.6,6.9,18.6c16.7,0,25.4-24.1,25.4-43.6
		c0-34.2-26.6-44.7-51.3-44.7c-43.4,0-66,32.8-66,70.8c0,38.8,23.6,52.7,48.2,52.7c9.8,0,20.2-2.1,28.9-5.5c0.7-0.4,1.6-0.4,2.5-0.4
		c3.7,0,6.9,3.2,6.9,6.9c0,3-2.1,5.7-4.8,6.6c-9.9,3.4-22.7,5-32.8,5c-33.9,0-64.4-17.9-64.4-64.7c0-47.5,31.6-83.7,80.3-83.7
		c29.3,0,66.9,12.9,66.9,56c0,23.6-11.2,56.4-39.7,56.4C95.8,113,91.4,105.7,90.7,95.4z M83.2,45.3c-16.1,0-27,15.1-27,38.1
		c0,10.1,2.1,18.1,12.4,18.1c12.4,0,18.3-11.3,21.6-28.9l4.8-24.8C90.8,45.3,86.2,45.3,83.2,45.3z"/>
</g>
</svg>
