<?xml version="1.0" encoding="utf-8"?>
<!-- Generator: Adobe Illustrator 24.2.3, SVG Export Plug-In . SVG Version: 6.00 Build 0)  -->
<svg version="1.1" id="圖層_1" xmlns="http://www.w3.org/2000/svg" xmlns:xlink="http://www.w3.org/1999/xlink" x="0px" y="0px"
	 viewBox="0 0 150 150" style="enable-background:new 0 0 150 150;" xml:space="preserve">
<style type="text/css">
	.st0{fill:#333333;}
</style>
<path class="st0" d="M122.8,101c-5.8-5.8-11.1-0.8-11.1-0.8l-5.3,5.3c-8,8-20.8,8.2-28.8,0.2L44.4,72.5c-8-8-7.7-20.7,0.3-28.7
	l5.3-5.3c0,0,5.1-5.1-1-11.2l-22-22c-5.9-5.9-11-0.8-11-0.8c-0.4,0.4-0.2,0.2-0.3,0.3c-28,28-15.6,70.2,21.9,107.8
	c37.5,37.6,79.7,49.9,107.8,21.9c0.1-0.1-0.2,0.1,0.3-0.3c0,0,5.1-5.1-0.8-11L122.8,101z M101.1,49c8,8,12.3,18.5,12.3,29.8
	c0,2.7,2.2,5,5,5c2.7,0,5-2.2,5-5c0-13.9-5.4-27-15.2-36.8c-9.8-9.8-22.9-15.2-36.8-15.2c-2.7,0-5,2.2-5,5c0,2.7,2.2,5,5,5
	C82.6,36.6,93.2,41,101.1,49z M126.6,23.4C111.9,8.6,92.2,0.5,71.3,0.5c-2.7,0-5,2.2-5,5c0,2.7,2.2,5,5,5c18.3,0,35.4,7.1,48.3,20
	c12.9,12.9,20,30.1,20,48.3c0,2.7,2.2,5,5,5c2.7,0,5-2.2,5-5C149.6,57.8,141.4,38.2,126.6,23.4z"/>
</svg>
