<?xml version="1.0" encoding="utf-8"?>
<!-- Generator: Adobe Illustrator 24.2.3, SVG Export Plug-In . SVG Version: 6.00 Build 0)  -->
<svg version="1.1" id="圖層_1" xmlns="http://www.w3.org/2000/svg" xmlns:xlink="http://www.w3.org/1999/xlink" x="0px" y="0px"
	 viewBox="0 0 150 150" style="enable-background:new 0 0 150 150;" xml:space="preserve">
<style type="text/css">
	.st0{fill:#333333;}
</style>
<path class="st0" d="M38.1,20.3h29.9c1.3,0,2.5-1.1,2.5-2.5c0-1.3-1.1-2.5-2.5-2.5H38.1c-1.3,0-2.5,1.1-2.5,2.5
	C35.7,19.2,36.8,20.3,38.1,20.3z M38.1,32.6h29.9c1.3,0,2.5-1.1,2.5-2.5c0-1.3-1.1-2.5-2.5-2.5H38.1c-1.3,0-2.5,1.1-2.5,2.5
	C35.7,31.5,36.8,32.6,38.1,32.6z M111.9,37c-0.1,0,0.1,0-0.3,0c0,0-4.4,0-4.4,5.1l0,19c0,5.3,4.4,5.2,4.4,5.2l4.6,0
	c6.9,0,12.5,5.3,12.5,12.3l0,28.7c0,6.9-5.6,12.3-12.5,12.3l-4.6,0c0,0-4.4,0.1-4.4,5.1l0,19.1c0,5.1,4.4,5.1,4.4,5.1
	c0.4,0,0.2,0,0.2,0c24.2,0,37.1-23.6,37.1-56C149,60.5,136.1,37,111.9,37z M111.6,115.1l0.1,0l4.6,0c4.5,0,8-3.4,8-7.8l0-28.7
	c0-4.3-3.5-7.7-8-7.7l-4.6,0c-3.5,0-9-2.7-9-9.8l0-16H87.2V0.7H18.9v44.4h-8.9c-5.1,0-9.3,4.2-9.3,9.3v77.1c0,5.1,4.2,9.3,9.3,9.3
	h92.6l0-16C102.7,117.8,108,115.2,111.6,115.1z M37.8,123.2c0,1.6-1.3,3-3,3h-6.6c-1.6,0-3-1.3-3-3v-6.6c0-1.6,1.3-3,3-3h6.6
	c1.6,0,3,1.3,3,3V123.2z M37.8,102.6c0,1.6-1.3,3-3,3h-6.6c-1.6,0-3-1.3-3-3V96c0-1.6,1.3-3,3-3h6.6c1.6,0,3,1.3,3,3V102.6z
	 M37.8,82c0,1.6-1.3,3-3,3h-6.6c-1.6,0-3-1.3-3-3v-6.6c0-1.6,1.3-3,3-3h6.6c1.6,0,3,1.3,3,3V82z M59.4,123.2c0,1.6-1.3,3-3,3h-6.6
	c-1.6,0-3-1.3-3-3v-6.6c0-1.6,1.3-3,3-3h6.6c1.6,0,3,1.3,3,3V123.2z M59.4,102.6c0,1.6-1.3,3-3,3h-6.6c-1.6,0-3-1.3-3-3V96
	c0-1.6,1.3-3,3-3h6.6c1.6,0,3,1.3,3,3V102.6z M59.4,82c0,1.6-1.3,3-3,3h-6.6c-1.6,0-3-1.3-3-3v-6.6c0-1.6,1.3-3,3-3h6.6
	c1.6,0,3,1.3,3,3V82z M81,123.2c0,1.6-1.3,3-3,3h-6.6c-1.6,0-3-1.3-3-3v-6.6c0-1.6,1.3-3,3-3H78c1.6,0,3,1.3,3,3V123.2z M81,102.6
	c0,1.6-1.3,3-3,3h-6.6c-1.6,0-3-1.3-3-3V96c0-1.6,1.3-3,3-3H78c1.6,0,3,1.3,3,3V102.6z M81,82c0,1.6-1.3,3-3,3h-6.6
	c-1.6,0-3-1.3-3-3v-6.6c0-1.6,1.3-3,3-3H78c1.6,0,3,1.3,3,3V82z M81.8,58.3H24.4V6.1h57.4V58.3z"/>
</svg>
